<?xml version="1.0" encoding="UTF-8"?>
<svg xmlns="http://www.w3.org/2000/svg" viewBox="0 0 87.17 23.50" role="img">
  <rect x="0.75" y="0.75" width="85.67" height="22.0" rx="11.0" fill="#ffffff"/>
  <svg x="8.75" y="6.00" width="11.50" height="11.50" viewBox="0 -960 960 960"><path fill="#ffffff" d="M480-80q-82 0-155-31.5t-127.5-86Q143-252 111.5-325T80-480q0-83 31.5-155.5t86-127Q252-817 325-848.5T480-880q83 0 155.5 31.5t127 86q54.5 54.5 86 127T880-480q0 82-31.5 155t-86 127.5q-54.5 54.5-127 86T480-80Zm0-82q26-36 45-75t31-83H404q12 44 31 83t45 75Zm-104-16q-18-33-31.5-68.5T322-320H204q29 50 72.5 87t99.5 55Zm208 0q56-18 99.5-55t72.5-87H638q-9 38-22.5 73.5T584-178ZM170-400h136q-3-20-4.5-39.5T300-480q0-21 1.5-40.5T306-560H170q-5 20-7.5 39.5T160-480q0 21 2.5 40.5T170-400Zm216 0h188q3-20 4.5-39.5T580-480q0-21-1.5-40.5T574-560H386q-3 20-4.5 39.5T380-480q0 21 1.5 40.5T386-400Zm268 0h136q5-20 7.5-39.5T800-480q0-21-2.5-40.5T790-560H654q3 20 4.5 39.5T660-480q0 21-1.5 40.5T654-400Zm-16-240h118q-29-50-72.5-87T584-782q18 33 31.5 68.5T638-640Zm-234 0h152q-12-44-31-83t-45-75q-26 36-45 75t-31 83Zm-200 0h118q9-38 22.5-73.5T376-782q-56 18-99.5 55T204-640Z"/></svg>
  <path fill="#ffffff" transform="translate(26.2500,15.0239) scale(0.004395,-0.004395)" d="M623 -23C949 -23 1158 209 1158 553C1158 901 949 1132 623 1132C297 1132 89 901 89 553C89 209 297 -23 623 -23ZM623 188C442 188 354 350 354 554C354 760 442 921 623 921C805 921 894 760 894 554C894 350 805 188 623 188Z"/>
  <path fill="#ffffff" transform="translate(31.4780,15.0239) scale(0.004395,-0.004395)" d="M138 -418H398V177H409C449 96 536 -20 728 -20C993 -20 1190 190 1190 557C1190 929 987 1132 729 1132C530 1132 448 1012 409 933H392V1118H138ZM658 194C488 194 393 340 393 558C393 776 486 918 658 918C834 918 923 766 923 558C923 348 832 194 658 194Z"/>
  <path fill="#ffffff" transform="translate(36.8422,15.0239) scale(0.004395,-0.004395)" d="M632 -23C881 -23 1055 96 1109 277L870 326C835 231 749 181 635 181C468 181 355 287 348 486H1126V568C1126 960 888 1132 615 1132C295 1132 89 896 89 552C89 202 295 -23 632 -23ZM349 663C361 812 457 928 616 928C771 928 858 823 873 663Z"/>
  <path fill="#ffffff" transform="translate(41.9120,15.0239) scale(0.004395,-0.004395)" d="M398 655C398 817 498 911 637 911C773 911 855 821 855 671V0H1115V711C1115 980 963 1132 733 1132C569 1132 453 1052 387 895L384 1118H138V0H398Z"/>
  <path fill="#ffffff" transform="translate(47.1663,15.0239) scale(0.004395,-0.004395)" d="M655 1118H439V1384H179V1118H20V914H179V293C179 95 298 -15 512 -15C567 -15 629 -8 686 9L645 210C620 204 574 197 550 197C471 197 439 234 439 315V914H655Z"/>
  <path fill="#ffffff" transform="translate(50.0916,15.0239) scale(0.004395,-0.004395)" d="M138 0H398V1118H138ZM268 1276C351 1276 420 1340 420 1419C420 1498 351 1561 268 1561C185 1561 117 1498 117 1419C117 1340 185 1276 268 1276Z"/>
  <path fill="#ffffff" transform="translate(52.1950,15.0239) scale(0.004395,-0.004395)" d="M550 -20C743 -20 829 96 870 177H886V0H1141V1490H881V933H870C830 1012 748 1132 549 1132C291 1132 89 929 89 557C89 190 285 -20 550 -20ZM621 194C447 194 355 348 355 558C355 766 445 918 621 918C792 918 886 776 886 558C886 340 790 194 621 194Z"/>
  <path fill="#ffffff" transform="translate(57.5592,15.0239) scale(0.004395,-0.004395)" d="M632 -23C881 -23 1055 96 1109 277L870 326C835 231 749 181 635 181C468 181 355 287 348 486H1126V568C1126 960 888 1132 615 1132C295 1132 89 896 89 552C89 202 295 -23 632 -23ZM349 663C361 812 457 928 616 928C771 928 858 823 873 663Z"/>
  <path fill="#ffffff" transform="translate(62.6290,15.0239) scale(0.004395,-0.004395)" d="M326 -17C416 -17 487 53 487 143C487 232 416 302 326 302C236 302 166 232 166 143C166 53 236 -17 326 -17Z"/>
  <path fill="#ffffff" transform="translate(65.2466,15.0239) scale(0.004395,-0.004395)" d="M623 -23C949 -23 1158 209 1158 553C1158 901 949 1132 623 1132C297 1132 89 901 89 553C89 209 297 -23 623 -23ZM623 188C442 188 354 350 354 554C354 760 442 921 623 921C805 921 894 760 894 554C894 350 805 188 623 188Z"/>
  <path fill="#ffffff" transform="translate(70.4746,15.0239) scale(0.004395,-0.004395)" d="M138 0H398V658C398 800 505 900 650 900C696 900 751 893 773 887V1126C748 1130 707 1133 678 1133C550 1133 442 1060 402 931H390V1118H138Z"/>
  <path fill="#ffffff" transform="translate(73.7954,15.0239) scale(0.004395,-0.004395)" d="M620 -442C921 -442 1143 -302 1143 -3V1118H888V933H874C834 1012 749 1132 551 1132C293 1132 89 929 89 562C89 198 292 17 549 17C742 17 824 119 864 200H886V-11C886 -171 780 -244 619 -244C456 -244 387 -167 352 -104L132 -183C188 -331 351 -442 620 -442ZM622 222C448 222 355 358 355 564C355 767 446 918 622 918C794 918 887 776 887 564C887 350 792 222 622 222Z"/>
</svg>
