<?xml version="1.0" encoding="UTF-8"?>
<svg xmlns="http://www.w3.org/2000/svg" viewBox="0 0 424.35 144.00" role="img">
  <rect width="424.35" height="144.00" rx="72.00" fill="#001489"/>
  <circle cx="70.00" cy="72.00" r="56.00" fill="#ffffff"/>
  <svg x="32.00" y="34.00" width="76.00" height="76.00" viewBox="0 -960 960 960"><path fill="#001489" d="M80-120v-80q38 0 68-14.5t65-40.5q30 25 65.5 39.5T347-201q33 0 69-14t65-40q32 28 66 41t68 13q33 0 64.5-13t69.5-41q39 30 69 42.5t62 12.5v80q-35 0-67.5-9.5T749-157q-32 20-66.5 28.5T615-120q-33 0-67.5-8.5T481-157q-29 19-64 28t-70 9q-34 0-68-9t-66-28q-31 18-64.5 27.5T80-120Zm0-180v-80q0-97 37.5-181T220-707q65-62 152.5-97.5T560-840q33 0 65.5 3.5T684-827q-21 32-32.5 67.5T640-693q0 55 39 94t94 39h107v80H773q-89 0-151-62t-62-151q0-14 2-29.5t6-30.5q-74 18-121 76.5T400-540q0 36 11.5 68.5T444-410q8-5 17-11.5t19-13.5q29 26 67 40t68 14q30 0 67-14.5t67-39.5q32 24 63.5 39.5T880-380v80q-35 0-67.5-9.5T749-337q-32 20-65 28.5t-69 8.5q-36 0-72-10t-62-27q-31 19-65 27.5t-69 9.5q-35 1-69-9t-65-28q-31 18-64.5 27.5T80-300Zm265-81h10q5 0 10-1-22-35-33.5-75T320-540q0-81 37-146.5T460-794v44q-62 16-114.5 48.5t-92 78.5Q214-577 190-520.5T161-400q15-9 26-16t26-19q37 27 67 40.5t65 13.5Zm-75-168Z"/></svg>
  <path fill="#ffffff" transform="translate(138.0000,94.5537) scale(0.030273,-0.030273)" d="M623 -23C949 -23 1158 209 1158 553C1158 901 949 1132 623 1132C297 1132 89 901 89 553C89 209 297 -23 623 -23ZM623 188C442 188 354 350 354 554C354 760 442 921 623 921C805 921 894 760 894 554C894 350 805 188 623 188Z"/>
  <path fill="#ffffff" transform="translate(174.0150,94.5537) scale(0.030273,-0.030273)" d="M138 -418H398V177H409C449 96 536 -20 728 -20C993 -20 1190 190 1190 557C1190 929 987 1132 729 1132C530 1132 448 1012 409 933H392V1118H138ZM658 194C488 194 393 340 393 558C393 776 486 918 658 918C834 918 923 766 923 558C923 348 832 194 658 194Z"/>
  <path fill="#ffffff" transform="translate(210.9684,94.5537) scale(0.030273,-0.030273)" d="M632 -23C881 -23 1055 96 1109 277L870 326C835 231 749 181 635 181C468 181 355 287 348 486H1126V568C1126 960 888 1132 615 1132C295 1132 89 896 89 552C89 202 295 -23 632 -23ZM349 663C361 812 457 928 616 928C771 928 858 823 873 663Z"/>
  <path fill="#ffffff" transform="translate(245.8936,94.5537) scale(0.030273,-0.030273)" d="M398 655C398 817 498 911 637 911C773 911 855 821 855 671V0H1115V711C1115 980 963 1132 733 1132C569 1132 453 1052 387 895L384 1118H138V0H398Z"/>
  <path fill="#ffffff" transform="translate(282.0902,94.5537) scale(0.030273,-0.030273)" d="M655 1118H439V1384H179V1118H20V914H179V293C179 95 298 -15 512 -15C567 -15 629 -8 686 9L645 210C620 204 574 197 550 197C471 197 439 234 439 315V914H655Z"/>
  <path fill="#ffffff" transform="translate(302.2419,94.5537) scale(0.030273,-0.030273)" d="M138 0H398V1118H138ZM268 1276C351 1276 420 1340 420 1419C420 1498 351 1561 268 1561C185 1561 117 1498 117 1419C117 1340 185 1276 268 1276Z"/>
  <path fill="#ffffff" transform="translate(316.7324,94.5537) scale(0.030273,-0.030273)" d="M550 -20C743 -20 829 96 870 177H886V0H1141V1490H881V933H870C830 1012 748 1132 549 1132C291 1132 89 929 89 557C89 190 285 -20 550 -20ZM621 194C447 194 355 348 355 558C355 766 445 918 621 918C792 918 886 776 886 558C886 340 790 194 621 194Z"/>
  <path fill="#ffffff" transform="translate(353.6859,94.5537) scale(0.030273,-0.030273)" d="M632 -23C881 -23 1055 96 1109 277L870 326C835 231 749 181 635 181C468 181 355 287 348 486H1126V568C1126 960 888 1132 615 1132C295 1132 89 896 89 552C89 202 295 -23 632 -23ZM349 663C361 812 457 928 616 928C771 928 858 823 873 663Z"/>
</svg>
